<mxfile host="app.diagrams.net" modified="2024-01-21T18:00:08.696Z" agent="Mozilla/5.0 (Windows NT 10.0; Win64; x64) AppleWebKit/537.36 (KHTML, like Gecko) Chrome/120.0.0.0 Safari/537.36" etag="4AO1flhweX78so7ftQux" version="22.1.21" type="device">
  <diagram name="Страница — 1" id="yt7krm-kUuRt0TT6X2Yx">
    <mxGraphModel dx="2263" dy="853" grid="1" gridSize="10" guides="1" tooltips="1" connect="1" arrows="1" fold="1" page="1" pageScale="1" pageWidth="827" pageHeight="1169" math="0" shadow="0">
      <root>
        <mxCell id="0" />
        <mxCell id="1" parent="0" />
        <mxCell id="-zfSSg6G0R7bkLTul8bI-8" style="edgeStyle=orthogonalEdgeStyle;rounded=0;orthogonalLoop=1;jettySize=auto;html=1;exitX=0;exitY=0.5;exitDx=0;exitDy=0;entryX=1;entryY=0.5;entryDx=0;entryDy=0;" edge="1" parent="1" source="-zfSSg6G0R7bkLTul8bI-1" target="-zfSSg6G0R7bkLTul8bI-6">
          <mxGeometry relative="1" as="geometry" />
        </mxCell>
        <mxCell id="-zfSSg6G0R7bkLTul8bI-12" value="" style="edgeStyle=orthogonalEdgeStyle;rounded=0;orthogonalLoop=1;jettySize=auto;html=1;" edge="1" parent="1" source="-zfSSg6G0R7bkLTul8bI-1" target="-zfSSg6G0R7bkLTul8bI-7">
          <mxGeometry relative="1" as="geometry" />
        </mxCell>
        <mxCell id="-zfSSg6G0R7bkLTul8bI-1" value="&lt;font style=&quot;&quot;&gt;&lt;span style=&quot;font-weight: bold; font-size: 18px;&quot;&gt;Система управления конференциями&lt;/span&gt;&lt;br&gt;&lt;font style=&quot;&quot; size=&quot;3&quot;&gt;&lt;br&gt;обеспечивает централизованное ведение конференций&lt;/font&gt;&lt;br&gt;&lt;/font&gt;" style="rounded=0;whiteSpace=wrap;html=1;fillColor=#dae8fc;strokeColor=#6c8ebf;" vertex="1" parent="1">
          <mxGeometry x="314" y="330" width="216" height="130" as="geometry" />
        </mxCell>
        <mxCell id="-zfSSg6G0R7bkLTul8bI-16" style="edgeStyle=orthogonalEdgeStyle;rounded=0;orthogonalLoop=1;jettySize=auto;html=1;" edge="1" parent="1" source="-zfSSg6G0R7bkLTul8bI-2" target="-zfSSg6G0R7bkLTul8bI-1">
          <mxGeometry relative="1" as="geometry">
            <Array as="points">
              <mxPoint x="160" y="270" />
              <mxPoint x="380" y="270" />
            </Array>
          </mxGeometry>
        </mxCell>
        <mxCell id="-zfSSg6G0R7bkLTul8bI-2" value="&lt;font style=&quot;font-size: 14px;&quot;&gt;&lt;br&gt;&lt;br&gt;&lt;b&gt;&lt;br&gt;&lt;br&gt;Сотрудники конференции&lt;/b&gt;&lt;br&gt;&lt;br&gt;ответственные за организацию конференции&lt;br&gt;&lt;/font&gt;" style="shape=actor;whiteSpace=wrap;html=1;fillColor=#fad7ac;strokeColor=#b46504;" vertex="1" parent="1">
          <mxGeometry x="80" width="160" height="200" as="geometry" />
        </mxCell>
        <mxCell id="-zfSSg6G0R7bkLTul8bI-3" value="&lt;font style=&quot;font-size: 14px;&quot;&gt;&lt;br&gt;&lt;br&gt;&lt;br&gt;&lt;br&gt;&lt;br&gt;&lt;b&gt;Посетители&lt;/b&gt;&lt;br&gt;&lt;br&gt;те, кто слушают выступления&lt;br&gt;&lt;/font&gt;" style="shape=actor;whiteSpace=wrap;html=1;fillColor=#fad7ac;strokeColor=#b46504;" vertex="1" parent="1">
          <mxGeometry x="350" width="170" height="200" as="geometry" />
        </mxCell>
        <mxCell id="-zfSSg6G0R7bkLTul8bI-14" value="" style="edgeStyle=orthogonalEdgeStyle;rounded=0;orthogonalLoop=1;jettySize=auto;html=1;" edge="1" parent="1">
          <mxGeometry relative="1" as="geometry">
            <mxPoint x="780" y="200" as="sourcePoint" />
            <mxPoint x="490" y="330" as="targetPoint" />
            <Array as="points">
              <mxPoint x="710" y="200" />
              <mxPoint x="710" y="270" />
              <mxPoint x="490" y="270" />
            </Array>
          </mxGeometry>
        </mxCell>
        <mxCell id="-zfSSg6G0R7bkLTul8bI-4" value="&lt;font style=&quot;font-size: 14px;&quot;&gt;&lt;br&gt;&lt;br&gt;&lt;br&gt;&lt;br&gt;&lt;br&gt;&lt;b&gt;Докладчики&lt;/b&gt;&lt;br&gt;&lt;br&gt;те, кто рассказывают материалы по заданной теме выступления&lt;br&gt;&lt;br&gt;&lt;/font&gt;" style="shape=actor;whiteSpace=wrap;html=1;fillColor=#fad7ac;strokeColor=#b46504;" vertex="1" parent="1">
          <mxGeometry x="647" width="180" height="200" as="geometry" />
        </mxCell>
        <mxCell id="-zfSSg6G0R7bkLTul8bI-6" value="&lt;font style=&quot;&quot;&gt;&lt;b style=&quot;font-size: 18px;&quot;&gt;Система рассылки SMS&lt;/b&gt;&lt;br&gt;&lt;font size=&quot;3&quot;&gt;&lt;br&gt;рассылает посетителям SMS об изменении расписания&lt;/font&gt;&lt;br&gt;&lt;/font&gt;" style="rounded=0;whiteSpace=wrap;html=1;fillColor=#bac8d3;strokeColor=#23445d;" vertex="1" parent="1">
          <mxGeometry x="-100" y="325" width="200" height="140" as="geometry" />
        </mxCell>
        <mxCell id="-zfSSg6G0R7bkLTul8bI-7" value="&lt;font style=&quot;&quot;&gt;&lt;b style=&quot;font-size: 18px;&quot;&gt;Система хранения электронной почты&lt;/b&gt;&lt;br&gt;&lt;font size=&quot;3&quot;&gt;&lt;br&gt;принимает и хранит электронные письма посетителей&lt;/font&gt;&lt;br&gt;&lt;/font&gt;" style="rounded=0;whiteSpace=wrap;html=1;fillColor=#bac8d3;strokeColor=#23445d;" vertex="1" parent="1">
          <mxGeometry x="790" y="325" width="200" height="140" as="geometry" />
        </mxCell>
        <mxCell id="-zfSSg6G0R7bkLTul8bI-9" value="Шлет SMS посредством &lt;br&gt;системы рассылки SMS" style="text;html=1;align=center;verticalAlign=middle;resizable=0;points=[];autosize=1;strokeColor=none;fillColor=none;" vertex="1" parent="1">
          <mxGeometry x="120" y="350" width="160" height="40" as="geometry" />
        </mxCell>
        <mxCell id="-zfSSg6G0R7bkLTul8bI-13" value="Вычитывает электронные сообщения&lt;br&gt;из системы хранения электронной почты" style="text;html=1;align=center;verticalAlign=middle;resizable=0;points=[];autosize=1;strokeColor=none;fillColor=none;" vertex="1" parent="1">
          <mxGeometry x="530" y="350" width="250" height="40" as="geometry" />
        </mxCell>
        <mxCell id="-zfSSg6G0R7bkLTul8bI-15" value="&lt;font style=&quot;font-size: 12px;&quot;&gt;добавляют материалы,&lt;br style=&quot;border-color: var(--border-color);&quot;&gt;отвечают за бренд по своему выступлению&lt;/font&gt;" style="text;html=1;align=center;verticalAlign=middle;resizable=0;points=[];autosize=1;strokeColor=none;fillColor=none;" vertex="1" parent="1">
          <mxGeometry x="700" y="210" width="270" height="40" as="geometry" />
        </mxCell>
        <mxCell id="-zfSSg6G0R7bkLTul8bI-17" style="edgeStyle=orthogonalEdgeStyle;rounded=0;orthogonalLoop=1;jettySize=auto;html=1;entryX=0.556;entryY=-0.013;entryDx=0;entryDy=0;entryPerimeter=0;" edge="1" parent="1" source="-zfSSg6G0R7bkLTul8bI-3" target="-zfSSg6G0R7bkLTul8bI-1">
          <mxGeometry relative="1" as="geometry" />
        </mxCell>
        <mxCell id="-zfSSg6G0R7bkLTul8bI-18" value="регистрируются на доклады&lt;br&gt;голосуют за доклады&lt;br&gt;просматривают материалы докладов" style="text;html=1;align=center;verticalAlign=middle;resizable=0;points=[];autosize=1;strokeColor=none;fillColor=none;" vertex="1" parent="1">
          <mxGeometry x="405" y="200" width="230" height="60" as="geometry" />
        </mxCell>
        <mxCell id="-zfSSg6G0R7bkLTul8bI-19" value="ведут расписание конференции&lt;br&gt;запрашивают рассылку уведомления&lt;br&gt;принимают звонки и SMS во время голосования &lt;br&gt;вносят результаты в систему" style="text;html=1;align=center;verticalAlign=middle;resizable=0;points=[];autosize=1;strokeColor=none;fillColor=none;" vertex="1" parent="1">
          <mxGeometry x="-140" y="200" width="290" height="70" as="geometry" />
        </mxCell>
        <mxCell id="-zfSSg6G0R7bkLTul8bI-21" value="&lt;font style=&quot;&quot;&gt;&lt;br&gt;&lt;/font&gt;" style="rounded=0;whiteSpace=wrap;html=1;fillColor=#bac8d3;strokeColor=#23445d;" vertex="1" parent="1">
          <mxGeometry x="-90" y="580" width="130" height="40" as="geometry" />
        </mxCell>
        <mxCell id="-zfSSg6G0R7bkLTul8bI-22" value="&lt;font style=&quot;font-size: 18px;&quot;&gt;&lt;b&gt;Легенда&lt;/b&gt;&lt;/font&gt;" style="text;html=1;strokeColor=none;fillColor=none;align=center;verticalAlign=middle;whiteSpace=wrap;rounded=0;" vertex="1" parent="1">
          <mxGeometry x="-80" y="530" width="60" height="30" as="geometry" />
        </mxCell>
        <mxCell id="-zfSSg6G0R7bkLTul8bI-23" value="&lt;font style=&quot;&quot;&gt;&lt;br&gt;&lt;/font&gt;" style="rounded=0;whiteSpace=wrap;html=1;fillColor=#dae8fc;strokeColor=#6c8ebf;" vertex="1" parent="1">
          <mxGeometry x="-90" y="640" width="130" height="40" as="geometry" />
        </mxCell>
        <mxCell id="-zfSSg6G0R7bkLTul8bI-24" value="&lt;font style=&quot;font-size: 14px;&quot;&gt;&lt;br&gt;&lt;/font&gt;" style="shape=actor;whiteSpace=wrap;html=1;fillColor=#fad7ac;strokeColor=#b46504;" vertex="1" parent="1">
          <mxGeometry x="-60" y="700" width="60" height="70" as="geometry" />
        </mxCell>
        <mxCell id="-zfSSg6G0R7bkLTul8bI-25" value="&lt;font style=&quot;font-size: 14px;&quot;&gt;- внешняя система&lt;/font&gt;" style="text;html=1;strokeColor=none;fillColor=none;align=center;verticalAlign=middle;whiteSpace=wrap;rounded=0;" vertex="1" parent="1">
          <mxGeometry x="50" y="585" width="160" height="30" as="geometry" />
        </mxCell>
        <mxCell id="-zfSSg6G0R7bkLTul8bI-26" value="&lt;font style=&quot;font-size: 14px;&quot;&gt;- разрабатываемая система&lt;/font&gt;" style="text;html=1;strokeColor=none;fillColor=none;align=center;verticalAlign=middle;whiteSpace=wrap;rounded=0;" vertex="1" parent="1">
          <mxGeometry x="50" y="640" width="220" height="30" as="geometry" />
        </mxCell>
        <mxCell id="-zfSSg6G0R7bkLTul8bI-27" value="&lt;font style=&quot;font-size: 14px;&quot;&gt;- человек, который взаимодействует с системой&lt;/font&gt;" style="text;html=1;strokeColor=none;fillColor=none;align=center;verticalAlign=middle;whiteSpace=wrap;rounded=0;" vertex="1" parent="1">
          <mxGeometry x="50" y="730" width="290" height="30" as="geometry" />
        </mxCell>
      </root>
    </mxGraphModel>
  </diagram>
</mxfile>
